<?xml version="1.0" encoding="UTF-8"?>
<svg color="white" xmlns="http://www.w3.org/2000/svg" xmlns:xlink="http://www.w3.org/1999/xlink" width="4273.7163pt" height="4965.193pt" viewBox="0 0 4273.7163 4965.193" version="1.1">
<defs>
<clipPath id="clip1">
  <path d="M 0 0 L 4273.714844 0 L 4273.714844 4965.191406 L 0 4965.191406 Z M 0 0 "/>
</clipPath>
</defs>
<g id="surface1">
<path style="fill-rule:evenodd;fill:#fff;fill-opacity:1;stroke-width:0.5669;stroke-linecap:butt;stroke-linejoin:miter;stroke:rgb(10.195923%,10.195923%,9.411621%);stroke-opacity:1;stroke-miterlimit:22.925586;" d="M 1394.742188 2386.431281 L 935.148438 3899.458625 L 473.597656 2386.431281 Z M 1394.742188 2386.431281 " transform="matrix(1,0,0,-1,1,4964.193)"/>
<path style=" stroke:none;fill-rule:evenodd;fill:#fff;fill-opacity:1;" d="M 3377.960938 4393.503906 C 2953.925781 4749.636719 2409.285156 4963.851562 1815.140625 4963.910156 C 1096.082031 4963.980469 449.386719 4650.464844 1.316406 4151.140625 L 188.753906 3536.554688 L 1662.578125 3536.40625 L 1873.335938 4230.179688 L 3231.101562 4230.042969 L 3231.644531 4230.640625 L 3235.066406 4230.65625 L 1675.425781 5.878906 L 1773.097656 1.898438 C 1794.003906 1.042969 1815 1.296875 1836.046875 1.402344 C 3188.542969 8.238281 4279.351562 1123.171875 4272.433594 2491.675781 C 4268.558594 3258.355469 3920.914062 3941.90625 3378.132812 4393.695312 Z M 3377.960938 4393.503906 "/>
<g clip-path="url(#clip1)" clip-rule="nonzero">
<path style="fill:none;stroke-width:0.5669;stroke-linecap:butt;stroke-linejoin:miter;stroke:rgb(10.195923%,10.195923%,9.411621%);stroke-opacity:1;stroke-miterlimit:22.925586;" d="M 3376.960938 570.689094 C 2952.925781 214.556281 2408.285156 0.341438 1814.140625 0.282844 C 1095.082031 0.212531 448.386719 313.728156 0.316406 813.052375 L 187.753906 1427.638313 L 1661.578125 1427.78675 L 1872.335938 734.013313 L 3230.101562 734.150031 L 3230.644531 733.552375 L 3234.066406 733.53675 L 1674.425781 4958.314094 L 1772.097656 4962.294563 C 1793.003906 4963.150031 1814 4962.896125 1835.046875 4962.790656 C 3187.542969 4955.954719 4278.351562 3841.021125 4271.433594 2472.517219 C 4267.558594 1705.837531 3919.914062 1022.28675 3377.132812 570.497688 Z M 3376.960938 570.689094 " transform="matrix(1,0,0,-1,1,4964.193)"/>
</g>
</g>
</svg>
